<svg xmlns="http://www.w3.org/2000/svg" xml:space="preserve" viewBox="0 0 128 128" id="kolkata">
  <symbol id="a" viewBox="0 -24 360 24">
    <path fill="#010101" fill-opacity="0" d="M0-24h360V0H0z"></path>
    <path fill="none" d="M312-21h40v16h-40z" opacity=".9"></path>
    <path fill="#fff" d="m266-19 8.8 10.9c-.3.3-3.7 3.1-8.8 3.1s-8.5-2.8-8.8-3.1L266-19z" opacity=".9"></path>
    <path fill="none" d="M258-20h16v16h-16z"></path>
    <path fill="#fff" d="M277-19h14v14z" opacity=".9"></path>
    <path fill="none" d="M276-20h16v16h-16zM296-20h16v16h-16z"></path>
    <path fill="#fff" d="M306-6v1h-3v-1h-3v-13h9v13h-3z" opacity=".9"></path>
  </symbol>
  <path fill="#f1f1f2" d="M79 57.6H49c0 3.3-2.7 6-6 6l.1 14h42l-.1-14c-3.4 0-6-2.7-6-6z"></path>
  <path fill="#d9d4d8" d="M49 61.6h30v-4H49v4z"></path>
  <path fill="#d9d4d8" d="M54 57.6h-5c0 3.3-2.7 6-6 6l.1 14h5l-.1-14c3.3 0 6-2.7 6-6zm20 0h5c0 3.3 2.7 6 6 6l-.1 14h-5l.1-14c-3.4 0-6-2.7-6-6z"></path>
  <path fill="#f1f1f2" d="M73 71.6h6v6h-6zM122.906 125.514h-14v-52h14z"></path>
  <path fill="#fff" d="M119 73.6h4v52h-4z"></path>
  <path fill="#f1f1f2" d="M5 73.6h14v52H5z"></path>
  <path fill="#fff" d="M15 73.6h4v52h-4z"></path>
  <path fill="#f1f1f2" d="M108.906 125.514h-18v-34h18z"></path>
  <path fill="#d9d4d8" d="M91 91.6h4v34h-4zM105 91.6h4v34h-4z"></path>
  <path fill="#f1f1f2" d="M55 81.6h18v44H55z"></path>
  <path fill="#d9d4d8" d="M55 81.6h18v4H55zM55 87.6h18v4H55z"></path>
  <path fill="#d9d4d8" d="M55 81.6h4v44h-4zM69 81.6h4v44h-4z"></path>
  <path fill="#8e7f8b" d="M55 125.6v-25c0-5 4-9 9-9s9 4 9 9v25"></path>
  <path fill="#f1f1f2" d="M59.9 33.6v-8.1c0-2.2 1.8-4 4-4s4 1.8 4 4v8.1M45 77.6h38v4H45z"></path>
  <path fill="#fff" d="M79 77.6h4v4h-4zM45 77.6h4v4h-4z"></path>
  <path fill="#f1f1f2" d="M45 81.6v-2h-8v8h12v-6z"></path>
  <path fill="#d9d4d8" d="M45 81.6v-2h-8v4h8v2h4v-4z"></path>
  <path fill="#d9d4d8" d="M41 79.6h4v2h-4zM45 81.6h4v6h-4z"></path>
  <path fill="#f1f1f2" d="M83 81.6v-2h8v8H79v-6z"></path>
  <path fill="#d9d4d8" d="M83 79.6v2h-4v4h4v-2h8v-4z"></path>
  <path fill="#d9d4d8" d="M79 81.6h4v6h-4zM83 79.6h4v2h-4z"></path>
  <path fill="#f1f1f2" d="M19 83.6h18v8H19zM91 83.6h18v8H91z"></path>
  <path fill="#d9d4d8" d="M33 83.6h4v8h-4zM105 83.6h4v8h-4zM19 83.6h4v8h-4zM91 83.6h4v8h-4z"></path>
  <path fill="#f1f1f2" d="M49 52.6v-4c0-8.3 6.7-15 15-15s15 6.7 15 15v4"></path>
  <path fill="#d9d4d8" d="M66 33.7c-.7-.1-1.3-.1-2-.1-8.3 0-15 6.7-15 15v4h4v-4c0-7.6 5.6-13.9 13-14.9z"></path>
  <path fill="#fff" d="M64 33.6c-.7 0-1.3.1-2 .1 7.3 1 13 7.2 13 14.9v4h4v-4c0-8.3-6.8-15-15-15z"></path>
  <path fill="#f1f1f2" d="M36.9 79.6v-12c0-2.2 1.8-4 4-4s4 1.8 4 4v12.1h-8zM49 81.6h6v44h-6zM37 87.6h6v38h-6zM43 87.6h6v38h-6z"></path>
  <path fill="#d9d4d8" d="M5 73.6h14v3H5zM5 79.6h14v3H5zM5 87.6h14v3H5zM5 105.6h14v3H5zM109 73.6h14v3h-14zM109 79.6h14v3h-14zM109 87.6h14v3h-14zM109 105.6h14v3h-14z"></path>
  <path fill="#f1f1f2" d="M19 91.6h18v34H19z"></path>
  <path fill="#d9d4d8" d="M19 91.6h18v4H19zM91 91.6h18v4H91z"></path>
  <path fill="#d9d4d8" d="M19 91.6h4v34h-4zM33 91.6h4v34h-4z"></path>
  <path fill="#f1f1f2" d="M90.906 125.514h-6v-38h6zM45 53.6h38v4H45z"></path>
  <path fill="#d9d4d8" d="M45 53.6h4v4h-4z"></path>
  <path fill="#fff" d="M79 53.6h4v4h-4z"></path>
  <path fill="#f1f1f2" d="M49 71.6h6v6h-6z"></path>
  <path fill="#fff" d="M52 71.6h3v6h-3zM76 71.6h3v6h-3z"></path>
  <path fill="#f1f1f2" d="M73 81.6h6v44h-6z"></path>
  <path fill="#fff" d="M52 81.6h3v44h-3zM40 87.6h3v38h-3zM88 87.6h3v38h-3zM76 81.6h3v44h-3z"></path>
  <path fill="#f1f1f2" d="M79 87.6h6v38h-6zM8.9 73.6v-9c0-1.7 1.3-3 3-3s3 1.3 3 3v9h-6zM82.9 79.6V67.5c0-2.2 1.8-4 4-4s4 1.8 4 4v12.1h-8z"></path>
  <path fill="#fff" d="M40.9 63.6c-.5 0-1 .1-1.5.3 1.5.6 2.5 2 2.5 3.7v12.1h3V67.6c.1-2.2-1.7-4-4-4zm46-.1c-.5 0-1 .1-1.5.3 1.5.6 2.5 2 2.5 3.7v12.1h3V67.5c.1-2.2-1.7-4-4-4z"></path>
  <path fill="#f1f1f2" d="M119 73.6v-9c0-1.7-1.3-3-3-3s-3 1.3-3 3v9h6z"></path>
  <path fill="#726571" d="M66 91.8c-.6-.1-1.3-.2-2-.2-5 0-9 4-9 9v25h4v-25c0-4.3 2.9-7.9 7-8.8z"></path>
  <path fill="#726571" d="M62 91.8c.6-.1 1.3-.2 2-.2 5 0 9 4 9 9v25h-4v-25c0-4.3-3-7.9-7-8.8z"></path>
  <path fill="#8e7f8b" d="M43 115.6v-5c0-1.7 1.3-3 3-3s3 1.3 3 3v5h-6zM43 101.6v-5c0-1.7 1.3-3 3-3s3 1.3 3 3v5h-6zM60.9 67.5v-3c0-1.7 1.3-3 3-3s3 1.3 3 3v3M9 91.6h6v8H9zM85 115.6v-5c0-1.7-1.3-3-3-3s-3 1.3-3 3v5h6zM85 101.6v-5c0-1.7-1.3-3-3-3s-3 1.3-3 3v5h6zM25 109.6h6v8h-6zM25 95.6h6v8h-6zM9 109.6h6v8H9zM113 91.6h6v8h-6zM97 109.6h6v8h-6zM97 95.6h6v8h-6zM113 109.6h6v8h-6z"></path>
  <path fill="#594454" d="M127 126.6H1c-.6 0-1-.4-1-1s.4-1 1-1h126c.6 0 1 .4 1 1s-.4 1-1 1zM73 119.6c-.6 0-1-.4-1-1v-18c0-4.4-3.6-8-8-8s-8 3.6-8 8v18c0 .6-.4 1-1 1s-1-.4-1-1v-18c0-5.5 4.5-10 10-10s10 4.5 10 10v18c0 .5-.5 1-1 1zM79 53.6c-.6 0-1-.4-1-1v-4c0-7.7-6.3-14-14-14s-14 6.3-14 14v4c0 .6-.4 1-1 1s-1-.4-1-1v-4c0-8.8 7.2-16 16-16s16 7.2 16 16v4c0 .5-.5 1-1 1zM49 116.6h-6c-.6 0-1-.4-1-1v-5c0-2.2 1.8-4 4-4s4 1.8 4 4v5c0 .5-.5 1-1 1zm-5-2h4v-4c0-1.1-.9-2-2-2s-2 .9-2 2v4zM49 102.6h-6c-.6 0-1-.4-1-1v-5c0-2.2 1.8-4 4-4s4 1.8 4 4v5c0 .5-.5 1-1 1zm-5-2h4v-4c0-1.1-.9-2-2-2s-2 .9-2 2v4zM45 80.6h-8c-.6 0-1-.4-1-1v-12c0-2.8 2.3-5 5-5s5 2.2 5 5v12.1c0 .5-.5.9-1 .9zm-7.1-2h6v-11c0-1.7-1.4-3-3-3s-3 1.4-3 3v11zM66.9 68.5c-.6 0-1-.4-1-1v-3c0-1.1-.9-2-2-2s-2 .9-2 2v3c0 .6-.4 1-1 1s-1-.4-1-1v-3c0-2.2 1.8-4 4-4s4 1.8 4 4v3c0 .5-.4 1-1 1z"></path>
  <path fill="#594454" d="M55 126.6h-6c-.6 0-1-.4-1-1v-44c0-.6.4-1 1-1h6c.6 0 1 .4 1 1v44c0 .5-.5 1-1 1zm-5-2h4v-42h-4v42zM43 126.6h-6c-.6 0-1-.4-1-1v-38c0-.6.4-1 1-1h6c.6 0 1 .4 1 1v38c0 .5-.5 1-1 1zm-5-2h4v-36h-4v36zM15 100.6H9c-.6 0-1-.4-1-1v-8c0-.6.4-1 1-1h6c.6 0 1 .4 1 1v8c0 .5-.5 1-1 1zm-5-2h4v-6h-4v6z"></path>
  <path fill="#594454" d="M19 126.6H5c-.6 0-1-.4-1-1v-52c0-.6.4-1 1-1h14c.6 0 1 .4 1 1v52c0 .5-.5 1-1 1zm-13-2h12v-50H6v50z"></path>
  <path fill="#594454" d="M37 126.6H19c-.6 0-1-.4-1-1v-34c0-.6.4-1 1-1h18c.6 0 1 .4 1 1v34c0 .5-.5 1-1 1zm-17-2h16v-32H20v32zM85 116.6h-6c-.6 0-1-.4-1-1v-5c0-2.2 1.8-4 4-4s4 1.8 4 4v5c0 .5-.5 1-1 1zm-5-2h4v-4c0-1.1-.9-2-2-2s-2 .9-2 2v4zM85 102.6h-6c-.6 0-1-.4-1-1v-5c0-2.2 1.8-4 4-4s4 1.8 4 4v5c0 .5-.5 1-1 1zm-5-2h4v-4c0-1.1-.9-2-2-2s-2 .9-2 2v4z"></path>
  <path fill="#594454" d="M91 126.6h-6c-.6 0-1-.4-1-1v-38c0-.6.4-1 1-1h6c.6 0 1 .4 1 1v38c0 .5-.5 1-1 1zm-5-2h4v-36h-4v36zM83 82.6H45c-.6 0-1-.4-1-1v-4c0-.6.4-1 1-1h38c.6 0 1 .4 1 1v4c0 .5-.5 1-1 1zm-37-2h36v-2H46v2zM83 58.6H45c-.6 0-1-.4-1-1v-4c0-.6.4-1 1-1h38c.6 0 1 .4 1 1v4c0 .5-.5 1-1 1zm-37-2h36v-2H46v2z"></path>
  <path fill="#594454" d="M55 78.6h-6c-.6 0-1-.4-1-1v-6c0-.6.4-1 1-1h6c.6 0 1 .4 1 1v6c0 .5-.5 1-1 1zm-5-2h4v-4h-4v4zM69 72.6H59c-.6 0-1-.4-1-1v-4c0-.6.4-1 1-1h10c.6 0 1 .4 1 1v4c0 .5-.5 1-1 1zm-9-2h8v-2h-8v2zM79 78.6h-6c-.6 0-1-.4-1-1v-6c0-.6.4-1 1-1h6c.6 0 1 .4 1 1v6c0 .5-.5 1-1 1zm-5-2h4v-4h-4v4zM79 126.6h-6c-.6 0-1-.4-1-1v-44c0-.6.4-1 1-1h6c.6 0 1 .4 1 1v44c0 .5-.5 1-1 1zm-5-2h4v-42h-4v42z"></path>
  <path fill="#594454" d="M79 72.6H49c-.6 0-1-.4-1-1s.4-1 1-1h30c.6 0 1 .4 1 1s-.5 1-1 1zM77 68.6H51c-.6 0-1-.4-1-1s.4-1 1-1h26c.6 0 1 .4 1 1s-.5 1-1 1zM45 80.6H35c-.6 0-1-.4-1-1s.4-1 1-1h10c.6 0 1 .4 1 1s-.5 1-1 1zM69 88.6H35c-.6 0-1-.4-1-1s.4-1 1-1h34c.6 0 1 .4 1 1s-.5 1-1 1z"></path>
  <path fill="#594454" d="M93 88.6H59c-.6 0-1-.4-1-1s.4-1 1-1h34c.6 0 1 .4 1 1s-.5 1-1 1zM127 126.6H1c-.6 0-1-.4-1-1s.4-1 1-1h126c.6 0 1 .4 1 1s-.5 1-1 1zM49 88.6H37c-.6 0-1-.4-1-1v-8c0-.6.4-1 1-1h8c.6 0 1 .4 1 1v1h3c.6 0 1 .4 1 1v6c0 .5-.5 1-1 1zm-11-2h10v-4h-3c-.6 0-1-.4-1-1v-1h-6v6zM93 80.6H83c-.6 0-1-.4-1-1s.4-1 1-1h10c.6 0 1 .4 1 1s-.5 1-1 1z"></path>
  <path fill="#594454" d="M91 88.6H79c-.6 0-1-.4-1-1v-6c0-.6.4-1 1-1h3v-1c0-.6.4-1 1-1h8c.6 0 1 .4 1 1v8c0 .5-.5 1-1 1zm-11-2h10v-6h-6v1c0 .6-.4 1-1 1h-3v4zM41 79.4c-.6 0-1-.4-1-1v-4.9c0-.6.4-1 1-1s1 .4 1 1v4.9c0 .6-.5 1-1 1zM41 63.7c-.6 0-1-.4-1-1v-3.1c0-.6.4-1 1-1s1 .4 1 1v3.1c0 .5-.5 1-1 1zM46.9 68.6H35c-.6 0-1-.4-1-1s.4-1 1-1h11.9c.6 0 1 .4 1 1s-.5 1-1 1zM14.9 74.6h-6c-.6 0-1-.4-1-1v-9c0-2.2 1.8-4 4-4s4 1.8 4 4v9c0 .5-.4 1-1 1zm-5-2h4v-8c0-1.1-.9-2-2-2s-2 .9-2 2v8z"></path>
  <path fill="#594454" d="M12 61.7c-.6 0-1-.4-1-1v-3.1c0-.6.4-1 1-1s1 .4 1 1v3.1c0 .5-.5 1-1 1zM5 75.7c-.6 0-1-.4-1-1v-3.1c0-.6.4-1 1-1s1 .4 1 1v3.1c0 .5-.5 1-1 1zM19 75.7c-.6 0-1-.4-1-1v-3.1c0-.6.4-1 1-1s1 .4 1 1v3.1c0 .5-.5 1-1 1zM17 66.6H7c-.6 0-1-.4-1-1s.4-1 1-1h10c.6 0 1 .4 1 1s-.5 1-1 1zM21 80.6H3c-.6 0-1-.4-1-1s.4-1 1-1h18c.6 0 1 .4 1 1s-.5 1-1 1zM21 88.6H3c-.6 0-1-.4-1-1s.4-1 1-1h18c.6 0 1 .4 1 1s-.5 1-1 1zM15 96.6H9c-.6 0-1-.4-1-1s.4-1 1-1h6c.6 0 1 .4 1 1s-.5 1-1 1zM31 118.6h-6c-.6 0-1-.4-1-1v-8c0-.6.4-1 1-1h6c.6 0 1 .4 1 1v8c0 .5-.5 1-1 1zm-5-2h4v-6h-4v6z"></path>
  <path fill="#594454" d="M30 114.6h-5c-.6 0-1-.4-1-1s.4-1 1-1h5c.6 0 1 .4 1 1s-.5 1-1 1zM31 104.6h-6c-.6 0-1-.4-1-1v-8c0-.6.4-1 1-1h6c.6 0 1 .4 1 1v8c0 .5-.5 1-1 1zm-5-2h4v-6h-4v6z"></path>
  <path fill="#594454" d="M30 100.6h-5c-.6 0-1-.4-1-1s.4-1 1-1h5c.6 0 1 .4 1 1s-.5 1-1 1zM15 118.6H9c-.6 0-1-.4-1-1v-8c0-.6.4-1 1-1h6c.6 0 1 .4 1 1v8c0 .5-.5 1-1 1zm-5-2h4v-6h-4v6zM37 92.6H19c-.6 0-1-.4-1-1v-8c0-.6.4-1 1-1h18c.6 0 1 .4 1 1v8c0 .5-.5 1-1 1zm-17-2h16v-6H20v6zM21 106.6H3c-.6 0-1-.4-1-1s.4-1 1-1h18c.6 0 1 .4 1 1s-.5 1-1 1zM80.9 48.6H47c-.6 0-1-.4-1-1s.4-1 1-1h33.9c.6 0 1 .4 1 1s-.5 1-1 1zM68 34.6c-.6 0-1-.4-1-1v-8.1c0-1.7-1.4-3-3-3s-3 1.4-3 3v8.1c0 .6-.4 1-1 1s-1-.4-1-1v-8.1c0-2.8 2.2-5 5-5s5 2.2 5 5v8.1c0 .5-.5 1-1 1z"></path>
  <path fill="#594454" d="M64 33.4c-.6 0-1-.4-1-1v-2.9c0-.6.4-1 1-1s1 .4 1 1v2.9c0 .6-.5 1-1 1zM53 53.6c-.6 0-1-.4-1-1v-4c0-.6.4-1 1-1s1 .4 1 1v4c0 .5-.5 1-1 1zM59 53.6c-.6 0-1-.4-1-1v-4c0-.6.4-1 1-1s1 .4 1 1v4c0 .5-.5 1-1 1zM53 67.6c-.6 0-1-.4-1-1v-8c0-.6.4-1 1-1s1 .4 1 1v8c0 .5-.5 1-1 1zM57 67.6c-.6 0-1-.4-1-1v-8c0-.6.4-1 1-1s1 .4 1 1v8c0 .5-.5 1-1 1zM71 67.6c-.6 0-1-.4-1-1v-8c0-.6.4-1 1-1s1 .4 1 1v8c0 .5-.5 1-1 1zM75 67.6c-.6 0-1-.4-1-1v-8c0-.6.4-1 1-1s1 .4 1 1v8c0 .5-.5 1-1 1zM69 53.6c-.6 0-1-.4-1-1v-4c0-.6.4-1 1-1s1 .4 1 1v4c0 .5-.5 1-1 1zM75 53.6c-.6 0-1-.4-1-1v-4c0-.6.4-1 1-1s1 .4 1 1v4c0 .5-.5 1-1 1zM64 21.7c-.6 0-1-.4-1-1v-7.1c0-.6.4-1 1-1s1 .4 1 1v7.1c0 .5-.5 1-1 1zM69.9 26.6H58c-.6 0-1-.4-1-1s.4-1 1-1h11.9c.6 0 1 .4 1 1s-.4 1-1 1zM91 80.6h-8c-.6 0-1-.4-1-1V67.5c0-2.8 2.3-5 5-5s5 2.2 5 5v12.1c0 .5-.5 1-1 1zm-7.1-2h6V67.5c0-1.7-1.4-3-3-3s-3 1.4-3 3v11.1z"></path>
  <path fill="#594454" d="M87 79.4c-.6 0-1-.4-1-1v-4.9c0-.6.4-1 1-1s1 .4 1 1v4.9c0 .6-.5 1-1 1zM87 63.7c-.6 0-1-.4-1-1v-3.1c0-.6.4-1 1-1s1 .4 1 1v3.1c0 .5-.5 1-1 1zM92.9 68.6H81c-.6 0-1-.4-1-1s.4-1 1-1h11.9c.6 0 1 .4 1 1s-.5 1-1 1zM63.9 51.6c-.6 0-1-.4-1-1s.4-1 1-1 1 .4 1 1-.4 1-1 1z"></path>
  <g fill="#594454">
    <path d="M43 64.6c-.6 0-1-.4-1-1s.4-1 1-1c2.8 0 5-2.2 5-5 0-.6.4-1 1-1s1 .4 1 1c0 3.8-3.2 7-7 7z"></path>
    <path d="M43 64.6h-1c-.6 0-1-.4-1-1s.4-1 1-1h1c.6 0 1 .4 1 1s-.5 1-1 1z"></path>
  </g>
  <g fill="#594454">
    <path d="M85 64.6c-3.9 0-7-3.1-7-7 0-.6.4-1 1-1s1 .4 1 1c0 2.8 2.2 5 5 5 .6 0 1 .4 1 1s-.5 1-1 1z"></path>
    <path d="M86 64.6h-1c-.6 0-1-.4-1-1s.4-1 1-1h1c.6 0 1 .4 1 1s-.5 1-1 1z"></path>
  </g>
  <circle cx="12" cy="83.6" r="1" fill="#594454"></circle>
  <path fill="#594454" d="M119 100.6h-6c-.6 0-1-.4-1-1v-8c0-.6.4-1 1-1h6c.6 0 1 .4 1 1v8c0 .5-.5 1-1 1zm-5-2h4v-6h-4v6z"></path>
  <path fill="#594454" d="M123 126.6h-14c-.6 0-1-.4-1-1v-52c0-.6.4-1 1-1h14c.6 0 1 .4 1 1v52c0 .5-.5 1-1 1zm-13-2h12v-50h-12v50z"></path>
  <path fill="#594454" d="M109 126.6H91c-.6 0-1-.4-1-1v-34c0-.6.4-1 1-1h18c.6 0 1 .4 1 1v34c0 .5-.5 1-1 1zm-17-2h16v-32H92v32zM119 74.6h-6c-.6 0-1-.4-1-1v-9c0-2.2 1.8-4 4-4s4 1.8 4 4v9c0 .5-.5 1-1 1zm-5-2h4v-8c0-1.1-.9-2-2-2s-2 .9-2 2v8z"></path>
  <path fill="#594454" d="M116 61.7c-.6 0-1-.4-1-1v-3.1c0-.6.4-1 1-1s1 .4 1 1v3.1c0 .5-.5 1-1 1zM123 75.7c-.6 0-1-.4-1-1v-3.1c0-.6.4-1 1-1s1 .4 1 1v3.1c0 .5-.5 1-1 1zM109 75.7c-.6 0-1-.4-1-1v-3.1c0-.6.4-1 1-1s1 .4 1 1v3.1c0 .5-.5 1-1 1zM121 66.6h-10c-.6 0-1-.4-1-1s.4-1 1-1h10c.6 0 1 .4 1 1s-.5 1-1 1zM125 80.6h-18c-.6 0-1-.4-1-1s.4-1 1-1h18c.6 0 1 .4 1 1s-.5 1-1 1zM125 88.6h-18c-.6 0-1-.4-1-1s.4-1 1-1h18c.6 0 1 .4 1 1s-.5 1-1 1zM119 96.6h-6c-.6 0-1-.4-1-1s.4-1 1-1h6c.6 0 1 .4 1 1s-.5 1-1 1zM103 118.6h-6c-.6 0-1-.4-1-1v-8c0-.6.4-1 1-1h6c.6 0 1 .4 1 1v8c0 .5-.5 1-1 1zm-5-2h4v-6h-4v6z"></path>
  <path fill="#594454" d="M103 114.6h-5c-.6 0-1-.4-1-1s.4-1 1-1h5c.6 0 1 .4 1 1s-.5 1-1 1zM103 104.6h-6c-.6 0-1-.4-1-1v-8c0-.6.4-1 1-1h6c.6 0 1 .4 1 1v8c0 .5-.5 1-1 1zm-5-2h4v-6h-4v6z"></path>
  <path fill="#594454" d="M103 100.6h-5c-.6 0-1-.4-1-1s.4-1 1-1h5c.6 0 1 .4 1 1s-.5 1-1 1zM119 118.6h-6c-.6 0-1-.4-1-1v-8c0-.6.4-1 1-1h6c.6 0 1 .4 1 1v8c0 .5-.5 1-1 1zm-5-2h4v-6h-4v6zM109 92.6H91c-.6 0-1-.4-1-1v-8c0-.6.4-1 1-1h18c.6 0 1 .4 1 1v8c0 .5-.5 1-1 1zm-17-2h16v-6H92v6zM125 106.6h-18c-.6 0-1-.4-1-1s.4-1 1-1h18c.6 0 1 .4 1 1s-.5 1-1 1z"></path>
  <circle cx="116" cy="83.6" r="1" fill="#594454"></circle>
  <defs>
    <path id="b" d="M-114.6-321.7H78.3v151.9h-192.9z"></path>
  </defs>
  <defs>
    <path id="c" d="M101.3-316.5h198v136h-198z"></path>
  </defs>
</svg>
