<svg xmlns="http://www.w3.org/2000/svg" xmlns:xlink="http://www.w3.org/1999/xlink" width="26" height="26" id="colud">
  <defs>
    <linearGradient id="a">
      <stop offset="0" stop-color="#5a5a5a"></stop>
      <stop offset="1" stop-color="#656e85"></stop>
    </linearGradient>
    <linearGradient xlink:href="#a" id="b" x1="1056.035" x2="1031.176" y1="544.13" y2="517.701" gradientTransform="translate(-856.774 596.81)scale(.833)" gradientUnits="userSpaceOnUse"></linearGradient>
  </defs>
  <g transform="translate(0 -1026.362)">
    <rect width="26" height="26" y="1026.362" fill="url(#b)" rx="5.495" ry="5.495"></rect>
    <path fill="#fff" d="M12.406 1034.456a5.591 5.591 0 0 0-3.125.969 5.682 5.682 0 0 0-2.375 3.468 2.485 2.485 0 0 0-.937 1.719c-1.026.029-1.813.826-1.813 1.844 0 .95.75 1.741 1.75 1.812h5.032c.966-.036 1.718-.797 1.718-1.75 0-.957-.742-1.764-1.687-1.812-.018-.447-.18-.832-.406-1.188.324-.889 1.378-1.411 2.374-1.156.808.238 1.36.954 1.376 1.719a1.8 1.8 0 0 0-.938 1.594 1.85 1.85 0 0 0 1.719 1.843H20.156c.951-.035 1.688-.827 1.688-1.781 0-.957-.74-1.733-1.688-1.781a2.502 2.502 0 0 0-2.5-2.375c-.064 0-.124-.005-.187 0a5.68 5.68 0 0 0-3.938-3.031 5.815 5.815 0 0 0-1.125-.094zm0 .687c.324 0 .645.03.969.094a5.041 5.041 0 0 1 3.375 2.5c-.258.1-.48.26-.688.438a4.194 4.194 0 0 0-2-1.782c-2.08-.858-4.457.027-5.437 1.969-.052-.003-.103-.031-.156-.031-.25 0-.49.057-.719.125a4.972 4.972 0 0 1 1.906-2.469 4.937 4.937 0 0 1 2.75-.844zm.031 1.625c.46.003.929.097 1.376.282a3.445 3.445 0 0 1 1.78 1.687c-.211.33-.367.682-.405 1.094-.064 0-.127.024-.188.031-.108-.986-.834-1.85-1.875-2.156-1.21-.307-2.46.23-3.031 1.219a2.684 2.684 0 0 0-.75-.438c.641-1.088 1.839-1.726 3.094-1.719zm5.22 1.5c.993 0 1.78.82 1.78 1.813 0 .058.011.095 0 .125a.42.42 0 0 0 .063.344c.1.139.273.154.469.125.032 0 .066-.032.093-.032.604 0 1.094.491 1.094 1.094 0 .573-.461 1.039-1.031 1.063h-5a1.141 1.141 0 0 1-1.063-1.125c0-.644.512-1.125 1.157-1.125.11 0 .15-.018.219 0a.374.374 0 0 0 .312-.063.352.352 0 0 0 .125-.281v-.125c0-.992.802-1.813 1.781-1.813zm-9.188.782c.557 0 1.075.232 1.406.625.258.306.406.696.406 1.125 0 .04-.026.092-.031.125-.009.06 0 .1 0 .156 0 .248.26.385.531.344.033-.002.053 0 .094 0 .603 0 1.094.49 1.094 1.093 0 .564-.455 1.039-1.031 1.063h-5c-.614-.044-1.094-.54-1.094-1.125 0-.645.526-1.156 1.187-1.156.111 0 .151.013.219.03a.37.37 0 0 0 .313-.062.352.352 0 0 0 .125-.281.615.615 0 0 0-.032-.188c0-.542.265-1.018.657-1.343a.33.33 0 0 0 .156-.125 1.776 1.776 0 0 1 1-.281z"></path>
  </g>
</svg>
