<svg xmlns="http://www.w3.org/2000/svg" viewBox="0 0 800 800" id="Cloud">
  <path fill="#ffffff" d="m668.94,483.21c0-49.2-39.88-89.08-89.08-89.08-6.67,0-13.16.76-19.41,2.15-6.18-45-44.75-79.67-91.45-79.67-10.22,0-20.04,1.69-29.23,4.75-14.89-42.2-55.09-72.44-102.38-72.44-59.96,0-108.56,48.6-108.56,108.56,0,.25.02.5.02.75-47.63,11.48-83.04,54.35-83.04,105.51,0,58.24,45.87,105.76,103.45,108.43-.04.08-.06.13-.06.13h342.86s-.02-.35-.04-.85c43.44-5.93,76.93-43.16,76.93-88.24Z" class="color35a8e0 svgShape"></path>
</svg>
