<svg xmlns="http://www.w3.org/2000/svg" xml:space="preserve" version="1.0" viewBox="0 0 24 24" id="Cloudy">
  <path fill="#ffffff" d="M7.13 13.706a.345.345 0 0 1-.236-.092 3.615 3.615 0 0 1-1.19-2.544 3.569 3.569 0 0 1 .972-2.59 3.568 3.568 0 0 1 2.513-1.185 3.605 3.605 0 0 1 2.627.971c.041.041.074.068.107.096.053.044.105.089.157.143a.348.348 0 0 1-.005.494.351.351 0 0 1-.495-.005c-.035-.036-.07-.064-.105-.094-.049-.041-.098-.082-.146-.131a2.865 2.865 0 0 0-2.109-.774 2.879 2.879 0 0 0-2.029.958 2.879 2.879 0 0 0-.789 2.091c.03.783.372 1.513.964 2.055a.349.349 0 0 1-.236.607zM7.497 6.61a.347.347 0 0 1-.325-.221l-.48-1.217a.347.347 0 0 1 .196-.453.347.347 0 0 1 .454.196l.48 1.217a.35.35 0 0 1-.325.478zM3.335 13.735a.35.35 0 0 1-.122-.678l1.217-.453a.35.35 0 1 1 .244.656l-1.217.453a.325.325 0 0 1-.122.022zM4.638 9.323a.372.372 0 0 1-.138-.027l-1.189-.508a.352.352 0 0 1-.185-.46.352.352 0 0 1 .46-.185l1.189.508c.178.076.26.282.185.46a.352.352 0 0 1-.322.212zM11.433 6.722a.35.35 0 0 1-.319-.494l.539-1.188a.35.35 0 1 1 .637.289l-.539 1.188a.35.35 0 0 1-.318.205z" class="color010101 svgShape"></path>
  <path fill="#ffffff" d="M18.003 19.306H8.206a.406.406 0 0 1-.158-.038c-1.683-.177-2.967-1.587-2.967-3.253 0-1.83 1.49-3.318 3.322-3.318.073 0 .146.003.218.01.061-2.464 2.073-4.449 4.54-4.449a4.57 4.57 0 0 1 4.568 4.563c0 .046-.002.091-.006.134a3.184 3.184 0 0 1 3.291 3.175 3.183 3.183 0 0 1-2.991 3.178c-.006-.002-.013-.002-.02-.002zm-9.716-.7h9.705a2.483 2.483 0 0 0 2.323-2.479 2.484 2.484 0 0 0-2.482-2.479c-.126 0-.251.02-.391.04l-.099.014a.35.35 0 0 1-.394-.404c.01-.059.022-.117.035-.178.023-.104.045-.203.045-.303a3.87 3.87 0 0 0-3.869-3.863c-2.118 0-3.842 1.733-3.842 3.863 0 .038.007.071.012.105.01.065.018.132.018.207a.349.349 0 0 1-.446.337 1.8 1.8 0 0 0-.5-.073c-1.422 0-2.623 1.199-2.623 2.619 0 1.336 1.053 2.462 2.396 2.563a.496.496 0 0 1 .112.031z" class="color010101 svgShape"></path>
  <path fill="#ffffff" d="M15.427 17.044a.35.35 0 0 1-.301-.171c-.636-1.073-2.05-1.448-3.154-.835a2.562 2.562 0 0 0-.868.846.347.347 0 0 1-.483.104.348.348 0 0 1-.104-.483 3.28 3.28 0 0 1 1.112-1.077c1.439-.797 3.274-.305 4.1 1.088a.349.349 0 0 1-.302.528z" class="color010101 svgShape"></path>
</svg>
