<svg xmlns="http://www.w3.org/2000/svg" enable-background="new 0 0 24 24" viewBox="0 0 24 24" id="partlycloudy">
  <g id="_icons" fill="#ffffff" class="color000000 svgShape">
    <path d="M15.2197,7c-0.462,0-0.9161,0.0472-1.3583,0.1383c-0.4133-2.0509-1.8177-3.8036-3.8311-4.6403
		C9.3984,2.2319,8.6748,2.4146,8.2275,2.9453C7.7881,3.4688,7.7354,4.2021,8.0967,4.77c0.3027,0.4761,0.4629,1.0259,0.4629,1.5898
		c0,1.6763-1.4043,3.04-3.1299,3.04c-0.623,0-1.2236-0.1782-1.7344-0.5146c-0.5586-0.3706-1.2832-0.3354-1.7979,0.085
		c-0.5186,0.4233-0.6973,1.1299-0.4443,1.7583c0.5751,1.4235,1.6659,2.5884,3.0245,3.2916C4.1768,14.6383,4,15.311,4,16.0098
		c0,2.0854,1.4082,3.8989,3.3965,4.4023c0.1133,0.0322,2.1172,0.5908,4.6689,0.5908c0.9277,0,1.9287-0.0737,2.9375-0.2739
		l0.832-0.1729C17.9668,20.2002,22,18.3257,22,13.7798C22,10.0415,18.958,7,15.2197,7z M5.4297,11.3999
		c2.8291,0,5.1299-2.2607,5.1299-5.04c0-0.4619-0.0645-0.9185-0.1895-1.3579c0.877,0.707,1.4531,1.7183,1.5957,2.8354
		c-0.0054,0.0029-0.0098,0.0072-0.0151,0.0101c-0.3244,0.178-0.6268,0.3868-0.9143,0.6126
		c-0.0425,0.0333-0.0865,0.0639-0.1282,0.0983c-0.273,0.2252-0.5241,0.4729-0.7575,0.737c-0.0435,0.0492-0.0859,0.0984-0.128,0.1489
		C9.7968,9.7155,9.5903,10.0018,9.409,10.306c-0.0273,0.0457-0.0507,0.0933-0.0769,0.1396
		c-0.183,0.3242-0.3473,0.6602-0.4756,1.0143c-0.3126-0.0198-0.6224,0-0.9279,0.043c-0.0928,0.0132-0.1815,0.0393-0.2731,0.0581
		c-0.2146,0.0437-0.4249,0.0971-0.6304,0.1704c-0.0973,0.0348-0.1904,0.0756-0.2852,0.1169
		c-0.1942,0.0844-0.3802,0.181-0.5612,0.2914c-0.088,0.0536-0.1745,0.1061-0.2588,0.1657c-0.0554,0.0392-0.1173,0.0678-0.171,0.1095
		c-0.6465-0.2651-1.2197-0.6768-1.6738-1.1934C4.5127,11.3394,4.9678,11.3999,5.4297,11.3999z M15.4668,18.5908l-0.8613,0.1782
		c-3.2891,0.6528-6.6299-0.2715-6.6904-0.2881C6.7881,18.1953,6,17.1792,6,16.0098c0-0.6572,0.252-1.2881,0.7031-1.769
		c0.1552-0.1625,0.3377-0.2979,0.533-0.4116C7.257,13.8166,7.2788,13.8059,7.3,13.794c0.4023-0.2192,0.8616-0.3384,1.3052-0.3371
		c0.2318,0.0043,0.4625,0.0338,0.6672,0.0978c0.2656,0.0825,0.5615,0.0503,0.8047-0.0928s0.415-0.3823,0.4727-0.6587
		c0.04-0.1932,0.0916-0.3823,0.1541-0.5665c0.4373-1.2892,1.4078-2.3368,2.6887-2.8666C13.9678,9.1245,14.583,9,15.2197,9
		C17.8555,9,20,11.144,20,13.7798C20,17.7573,15.6855,18.5522,15.4668,18.5908z" fill="#ffffff" class="color000000 svgShape"></path>
    <path d="M1.9189,5.4932L2.4707,5.584c0.4854,0.0801,0.8652,0.46,0.9453,0.9448l0.0908,0.5522C3.5459,7.3228,3.7549,7.5,4,7.5
		s0.4541-0.1772,0.4932-0.4189L4.584,6.5293c0.0801-0.4854,0.46-0.8652,0.9453-0.9453l0.5518-0.0908C6.3232,5.4536,6.5,5.2446,6.5,5
		S6.3232,4.5464,6.0811,4.5068L5.5293,4.416c-0.4854-0.0801-0.8652-0.46-0.9453-0.9453L4.4932,2.9189
		C4.4541,2.6772,4.2451,2.5,4,2.5S3.5459,2.6772,3.5068,2.9189L3.416,3.4707c-0.0801,0.4854-0.46,0.8652-0.9453,0.9453
		L1.9189,4.5068C1.6768,4.5464,1.5,4.7554,1.5,5S1.6768,5.4536,1.9189,5.4932z M4,4.5747C4.1211,4.7358,4.2646,4.8789,4.4258,5
		C4.2646,5.1211,4.1211,5.2642,4,5.4253C3.8789,5.2642,3.7354,5.1211,3.5742,5C3.7354,4.8789,3.8789,4.7358,4,4.5747z" fill="#ffffff" class="color000000 svgShape"></path>
  </g>
</svg>
