<svg xmlns="http://www.w3.org/2000/svg" viewBox="0 0 512 512" id="rain">
  <path fill="#e0e0e2" d="M504.525,132.68747a38.52514,38.52514,0,0,1-38.52,38.52H343.335a38.52,38.52,0,0,1-25.98-66.96c.59-.54,1.2-1.06,1.82-1.56a38.18589,38.18589,0,0,1,18.16-8.06,43.379,43.379,0,0,1,57.37-35.42,45.62863,45.62863,0,0,1,83.64,24.6,46.05723,46.05723,0,0,1-1.41,11.94,38.50992,38.50992,0,0,1,27.59,36.94Z"></path>
  <path fill="#d9d8da" d="M334.815,152.68744a38.38749,38.38749,0,0,1,12.54-28.44c.59-.54,1.2-1.06,1.82-1.56a38.186,38.186,0,0,1,18.16-8.06,43.379,43.379,0,0,1,57.37-35.42,45.49049,45.49049,0,0,1,46.18353-19.64264,45.55117,45.55117,0,0,0-76.18353-.35736,43.379,43.379,0,0,0-57.37,35.42,38.186,38.186,0,0,0-18.16,8.06c-.62.5-1.23,1.02-1.82,1.56a38.51948,38.51948,0,0,0,22.09039,66.765A38.34059,38.34059,0,0,1,334.815,152.68744Z"></path>
  <path fill="#4ebaea" d="M97.58066 293.23666q-.33765 0-.68067-.03076a7.49979 7.49979 0 0 1-6.79785-8.1416l2.6875-29.8794a7.49989 7.49989 0 0 1 14.93946 1.34375l-2.6875 29.8794A7.50086 7.50086 0 0 1 97.58066 293.23666zM166.40292 306.46762q-.33763 0-.68066-.03076a7.49979 7.49979 0 0 1-6.79785-8.1416l2.688-29.8794a7.49988 7.49988 0 1 1 14.93945 1.34375l-2.688 29.8794A7.50085 7.50085 0 0 1 166.40292 306.46762zM236.12167 299.7391q-.33763 0-.68066-.03076a7.49978 7.49978 0 0 1-6.79785-8.1416l2.6875-29.87939a7.49988 7.49988 0 1 1 14.93945 1.34375l-2.6875 29.87939A7.50085 7.50085 0 0 1 236.12167 299.7391zM306.73593 306.46762q-.33765 0-.68066-.03076a7.49979 7.49979 0 0 1-6.79785-8.1416l2.688-29.8794a7.49989 7.49989 0 0 1 14.93946 1.34375l-2.688 29.8794A7.50086 7.50086 0 0 1 306.73593 306.46762zM375.55869 322.28207q-.33765 0-.68067-.03076a7.49978 7.49978 0 0 1-6.79785-8.1416l2.6875-29.8794a7.49988 7.49988 0 0 1 14.93945 1.34375l-2.6875 29.8794A7.50085 7.50085 0 0 1 375.55869 322.28207zM445.277 328.55307q-.33765 0-.68067-.03076a7.4998 7.4998 0 0 1-6.79785-8.14161l2.688-29.8789a7.49988 7.49988 0 0 1 14.93945 1.34375l-2.688 29.8789A7.50084 7.50084 0 0 1 445.277 328.55307zM379.11288 251.37094q-.33764 0-.68066-.03076a7.49979 7.49979 0 0 1-6.79785-8.1416l2.688-29.8794a7.49988 7.49988 0 0 1 14.93945 1.34375l-2.688 29.8794A7.50085 7.50085 0 0 1 379.11288 251.37094zM448.83163 257.64242q-.33764 0-.68066-.03076a7.49978 7.49978 0 0 1-6.79785-8.1416l2.6875-29.87939a7.49988 7.49988 0 1 1 14.93945 1.34375l-2.6875 29.87939A7.50085 7.50085 0 0 1 448.83163 257.64242zM81.45419 466.51254q-.33763 0-.68066-.03076a7.49978 7.49978 0 0 1-6.79785-8.1416l2.6875-29.8794a7.49988 7.49988 0 0 1 14.93945 1.34375l-2.6875 29.8794A7.50086 7.50086 0 0 1 81.45419 466.51254zM150.27646 506.744q-.33765 0-.68067-.03077a7.49979 7.49979 0 0 1-6.79785-8.1416l2.688-29.87939a7.49988 7.49988 0 0 1 14.93945 1.34375l-2.688 29.87939A7.50086 7.50086 0 0 1 150.27646 506.744zM219.99521 489.015q-.33765 0-.68067-.03076a7.49979 7.49979 0 0 1-6.79785-8.1416l2.6875-29.8794a7.49989 7.49989 0 0 1 14.93946 1.34375l-2.6875 29.8794A7.50086 7.50086 0 0 1 219.99521 489.015zM290.60947 507.327q-.33765 0-.68067-.03076a7.49978 7.49978 0 0 1-6.79785-8.1416l2.688-29.87939a7.49988 7.49988 0 1 1 14.93945 1.34375l-2.688 29.87939A7.50084 7.50084 0 0 1 290.60947 507.327zM359.43222 481.558q-.33765 0-.68066-.03076a7.49979 7.49979 0 0 1-6.79786-8.1416l2.6875-29.8794a7.49989 7.49989 0 0 1 14.93946 1.34375l-2.6875 29.8794A7.50086 7.50086 0 0 1 359.43222 481.558zM429.15048 507.82944q-.33765 0-.68066-.03077a7.49978 7.49978 0 0 1-6.79785-8.1416l2.688-29.87939a7.49989 7.49989 0 0 1 14.93946 1.34375l-2.688 29.87939A7.50087 7.50087 0 0 1 429.15048 507.82944zM59.54843 375.183q-.33765 0-.68066-.03076a7.49978 7.49978 0 0 1-6.79785-8.1416l2.6875-29.8794a7.49988 7.49988 0 0 1 14.93945 1.34375l-2.6875 29.8794A7.50086 7.50086 0 0 1 59.54843 375.183zM128.3707 391.41391q-.33765 0-.68067-.03076a7.4998 7.4998 0 0 1-6.79785-8.14161l2.688-29.87939a7.49988 7.49988 0 1 1 14.93945 1.34375l-2.688 29.87939A7.50084 7.50084 0 0 1 128.3707 391.41391zM198.08945 397.68539q-.33765 0-.68067-.03076a7.49978 7.49978 0 0 1-6.79785-8.1416l2.6875-29.8794a7.49988 7.49988 0 0 1 14.93945 1.34375l-2.6875 29.8794A7.50084 7.50084 0 0 1 198.08945 397.68539zM268.7037 393.99692q-.33764 0-.68066-.03077a7.49978 7.49978 0 0 1-6.79785-8.1416l2.688-29.87939a7.49988 7.49988 0 0 1 14.93945 1.34375l-2.688 29.87939A7.50085 7.50085 0 0 1 268.7037 393.99692zM337.52646 410.22836q-.33765 0-.68067-.03076a7.49979 7.49979 0 0 1-6.79785-8.1416l2.6875-29.8794a7.49989 7.49989 0 0 1 14.93946 1.34375l-2.6875 29.8794A7.50086 7.50086 0 0 1 337.52646 410.22836zM407.24472 416.49936q-.33765 0-.68066-.03076a7.49981 7.49981 0 0 1-6.79786-8.14161l2.688-29.8789a7.49989 7.49989 0 0 1 14.93946 1.34375l-2.688 29.8789A7.50086 7.50086 0 0 1 407.24472 416.49936z"></path>
  <path fill="#d9d8da" d="M356.865,161.3475a65.38286,65.38286,0,0,1-.75,9.86h-12.78a38.52,38.52,0,0,1-25.98-66.96c.59-.54,1.2-1.06,1.82-1.56a64.52625,64.52625,0,0,1,37.69,58.66Z"></path>
  <path fill="#e0e0e2" d="M341.865,161.3475a64.503,64.503,0,0,1-64.5,64.5H71.975a64.50307,64.50307,0,0,1-10.04-128.22,72.61109,72.61109,0,0,1,96.05-59.31,76.4134,76.4134,0,0,1,137.68,61.18,64.53072,64.53072,0,0,1,46.2,61.85Z"></path>
  <path fill="#d9d8da" d="M325.665 119.49744c.34656.10254.68671.21972 1.03082.32788-.2868-.34033-.57458-.67987-.86828-1.0141C325.77185 119.03937 325.72278 119.27008 325.665 119.49744zM37.475 181.34747a64.49814 64.49814 0 0 1 54.46-63.72 72.61109 72.61109 0 0 1 96.05-59.31 76.33285 76.33285 0 0 1 64.71-34.13995 75.44467 75.44467 0 0 1 24.91839 4.5957 76.20781 76.20781 0 0 0-119.62841 9.54425 72.60042 72.60042 0 0 0-96.05 59.31 64.51583 64.51583 0 0 0-9.279 125.27344A64.24051 64.24051 0 0 1 37.475 181.34747z"></path>
</svg>
