<svg xmlns="http://www.w3.org/2000/svg" viewBox="0 0 512 512" id="snowflake">
  <path fill="#c4e2ff" d="M471.7 380.18a19.027 19.027 0 0 1-25.95 6.94L405.6 364l6.44 23.96a19 19 0 0 1-36.71 9.81l-16.27-60.56-46.87-26.98-26.7-15.37a6.997 6.997 0 0 0-10.49 6.06v84.68l44.46 44.34a18.972 18.972 0 0 1-26.87 26.79L275 439.19v46.23a19 19 0 0 1-38 0v-46.23l-17.27 17.23c-7.02 6.99-18.32 7.82-25.92 1.46a18.898 18.898 0 0 1-1.27-27.94L237 385.6v-84.68a6.997 6.997 0 0 0-10.49-6.06l-73.57 42.35-16.27 60.56a19 19 0 0 1-36.71-9.81L106.4 364l-40.15 23.12a18.961 18.961 0 1 1-19-32.82l40.15-23.11-24.03-6.42a18.95 18.95 0 1 1 9.84-36.6l60.73 16.22 73.52-42.32a7.004 7.004 0 0 0 0-12.14l-73.52-42.32-60.73 16.22a18.95 18.95 0 1 1-9.84-36.6l24.03-6.42-40.15-23.11a18.961 18.961 0 1 1 19-32.82L106.4 148l-6.44-23.96a19 19 0 0 1 36.71-9.81l16.27 60.56 73.57 42.35a6.997 6.997 0 0 0 10.49-6.06V126.4l-44.46-44.34a18.898 18.898 0 0 1 1.27-27.94c7.6-6.36 18.9-5.53 25.92 1.46L237 72.81V26.58a19 19 0 0 1 38 0v46.23l17.27-17.23c7.02-6.99 18.32-7.82 25.92-1.46a18.898 18.898 0 0 1 1.27 27.94L275 126.4v84.68a6.997 6.997 0 0 0 10.49 6.06l73.57-42.35 16.27-60.56a19 19 0 0 1 36.71 9.81L405.6 148l40.15-23.12a18.961 18.961 0 1 1 19 32.82l-40.15 23.11 24.03 6.42a18.95 18.95 0 1 1-9.84 36.6l-60.73-16.22-4.6 2.65-68.92 39.67a7.004 7.004 0 0 0 0 12.14l31.67 18.23 41.85 24.09 60.73-16.22a18.95 18.95 0 1 1 9.84 36.6l-24.03 6.42 40.15 23.11a18.91 18.91 0 0 1 6.95 25.88Z"></path>
  <path fill="#b3dafe" d="M433.63 202.23a18.93 18.93 0 0 1 13.715 21.878 18.924 18.924 0 0 0 1.285-36.878l-16.476-4.402-10.599 6.1a5.697 5.697 0 0 0 1.372 10.443zm-237.998 66.649L133.94 304.39l-60.73-16.22a19 19 0 0 0-23.27 13.4c-.119.44-.2.881-.285 1.322a18.947 18.947 0 0 1 8.555.278l60.73 16.22 73.52-42.32a6.981 6.981 0 0 0 3.172-8.191zM241 22.64a18.972 18.972 0 0 1 19 18.94v32.038a5.888 5.888 0 0 0 10.047 4.168l7.223-7.206c7.02-6.99 18.32-7.82 25.92-1.46a18.884 18.884 0 0 1 1.635 27.536L319.46 82.06a18.898 18.898 0 0 0-1.27-27.94c-7.6-6.36-18.9-5.53-25.92 1.46L275 72.81V26.58a19.001 19.001 0 0 0-37.65-3.582 19.122 19.122 0 0 1 3.65-.358zm138.37 92.56a18.998 18.998 0 0 1 17.67 23.84l-2.872 10.684a5.697 5.697 0 0 0 8.345 6.416l28.237-16.26a19.027 19.027 0 0 1 25.95 6.94 18.834 18.834 0 0 1 1.886 14.428l6.164-3.548a18.961 18.961 0 1 0-19-32.82L405.6 148l6.44-23.96a19 19 0 0 0-36.71-9.81l-.36 1.339a18.945 18.945 0 0 1 4.4-.369zm-112.883 19.73A22.077 22.077 0 0 0 260 150.562v75.518a6.997 6.997 0 0 0 10.49 6.06l67.645-38.94a16.49 16.49 0 0 0 7.699-10.012l.249-.928-60.593 34.88a6.997 6.997 0 0 1-10.49-6.06v-84.64zM448.63 324.77a18.95 18.95 0 1 0-9.84-36.6l-60.73 16.22-41.85-24.09-31.67-18.23a6.9 6.9 0 0 1-3.172-3.948l-11.828 6.808a7.004 7.004 0 0 0 0 12.14l31.67 18.23L356.3 315.5a18.887 18.887 0 0 0 14.296 1.878l53.194-14.207a19 19 0 0 1 23.27 13.4 18.776 18.776 0 0 1 .28 8.545zM51.25 139.88l19.213 11.064a10.012 10.012 0 0 0 14.666-11.276l-.169-.628a18.975 18.975 0 0 1-.614-3.74L66.25 124.88a18.963 18.963 0 0 0-28.14 12.834 18.953 18.953 0 0 1 13.14 2.166zM275 385.6v-73.144l-4.51-2.596a6.997 6.997 0 0 0-10.49 6.06v74.737a23.959 23.959 0 0 0 7.04 16.964l37.42 37.319a18.876 18.876 0 0 1 5.22 16.987 18.939 18.939 0 0 0 9.78-31.987zm-53 14.96-29.46 29.38c-.13.13-.24.272-.365.404L222 400.6zm-86.215-40.328-13.753 51.19a18.969 18.969 0 0 0 14.638-13.652l14.247-53.03-5.778 3.326a20.036 20.036 0 0 0-9.354 12.166zm130.452 100.177a3.655 3.655 0 0 0-6.237 2.588v37.423a18.95 18.95 0 0 1-.35 3.582A18.958 18.958 0 0 0 275 485.42v-16.273zM204.73 70.58l7.223 7.206A5.888 5.888 0 0 0 222 73.618V57.845l-2.27-2.265c-7.02-6.99-18.32-7.82-25.92-1.46a18.845 18.845 0 0 0-6.48 11.02 19.703 19.703 0 0 1 17.4 5.44zm-83.06 58.65 16.27 60.56 73.57 42.35a6.997 6.997 0 0 0 10.49-6.06v-11.536l-69.06-39.754-16.27-60.56a19.005 19.005 0 0 0-37 1.336 18.998 18.998 0 0 1 22 13.664zM464.75 354.3l-27.572-15.87a19.164 19.164 0 0 1-3.548 1.34l-11.18 2.987a5.494 5.494 0 0 0-1.322 10.068L449.75 369.3a18.91 18.91 0 0 1 9.14 19.986 18.92 18.92 0 0 0 5.86-34.986z"></path>
</svg>
